# xmcd
#
# Track frame offsets: 
#        150
#        18999
#        26849
#        42201
#        58933
#        69953
#        87188
#        97166
#        107906
#        126253
#
# Disc length: 1820 seconds
#
# Revision: 0
# Processed by: cddbd v1.5.1PL2 Copyright (c) Steve Scherf et al.
# Submitted via: ExactAudioCopy v0.95b2
#
DISCID=87071a0a
DTITLE=Various Artist - Héritage Country - Vol 5
DYEAR=1900
DGENRE=Country
TTITLE0=Un coin du ciel
TTITLE1=Diggy diggy ly
TTITLE2=Que la lune est belle ce soir
TTITLE3=Danser pour t'oublier
TTITLE4=Le mur d'acier
TTITLE5=La chapelle
TTITLE6=Stewball
TTITLE7=Ouvre moi ton coeur
TTITLE8=Le train qui siffle
TTITLE9=Prière d'une mère
EXTD=
EXTT0=
EXTT1=
EXTT2=
EXTT3=
EXTT4=
EXTT5=
EXTT6=
EXTT7=
EXTT8=
EXTT9=
PLAYORDER=
